<svg xmlns="http://www.w3.org/2000/svg" width="18" height="18" viewBox="0 0 18 18" fill="none">
  <path d="M11.8305 6.17367L10.3112 4.65438C10.6397 3.81816 10.8587 2.92696 10.9508 1.99842C11.0053 1.44883 11.4477 1 12 1H13C15.2091 1 17.0513 2.81867 16.5063 4.95952C16.1287 6.44253 15.5441 7.84279 14.7848 9.12768M9.48544 9.48513C8.52788 10.4427 7.40925 11.2392 6.17366 11.8305L4.65438 10.3112C3.81815 10.6397 2.92696 10.8587 1.99842 10.9508C1.44883 11.0053 1 11.4477 1 12V13C1 15.2091 2.81867 17.0513 4.95953 16.5063C7.78717 15.7864 10.314 14.3135 12.3139 12.3136" stroke="#292929" stroke-width="2" stroke-linecap="round" stroke-linejoin="round"/>
  <path d="M1 1L17 17" stroke="#292929" stroke-width="2" stroke-linecap="round"/>
</svg>